# xmcd
#
# Track frame offsets:
#  150
#  20509
#  34692
#  49384
#  67561
#  88184
#  103545
#  124198
#  142587
#  156772
#  169780
#  182123
#  194624
#  206975
#  220361
#  233864
#  253730
#  269369
#  281412
#
# Disc length: 3920 seconds
#
# Revision: 0
# Processed by: cddbd v1.5.1PL2 Copyright (c) Steve Scherf et al.
# Submitted via: Collectorz.com_Music_Collector 6.11
#
DISCID=170f4e13
DTITLE=Jimmy Yancey - Complete Recorded Works 1939-1950 In Chronological Order Volume 2 (1940-43)
DYEAR=1900
DGENRE=
TTITLE0=Bear Trap Blues
TTITLE1=Old Quaker Blues
TTITLE2=35th and Dearborn
TTITLE3=I Love To Hear My Baby Call My Name
TTITLE4=Cryin' In My Sleep
TTITLE5=Death Letter Blues
TTITLE6=Yancey's Bugle Call (Take 1)
TTITLE7=Yancey's Bugle Call (Take 2)
TTITLE8=35th and Dearborn (Take 1)
TTITLE9=35th and Dearborn (Take 2)
TTITLE10=Boodlin'
TTITLE11=Yancey's Mixture
TTITLE12=Death Letter Blues
TTITLE13=Sweet Patootie
TTITLE14=How Long Blues
TTITLE15=How Long Blues (Alternate Take)
TTITLE16=The Rocks
TTITLE17=Jimmy's Rocks
TTITLE18=How Long Blues
EXTD=
EXTT0=
EXTT1=
EXTT2=
EXTT3=
EXTT4=
EXTT5=
EXTT6=
EXTT7=
EXTT8=
EXTT9=
EXTT10=
EXTT11=
EXTT12=
EXTT13=
EXTT14=
EXTT15=
EXTT16=
EXTT17=
EXTT18=
PLAYORDER=
